<svg width="65" height="61" viewBox="0 0 65 61" fill="none" xmlns="http://www.w3.org/2000/svg">
<rect width="64.1407" height="60.472" rx="30" fill="#E23C16"/>
<g clip-path="url(#clip0_10435_736)">
<path d="M48.7566 28.4328L33.4128 13.9671C32.5297 13.134 31.0965 13.134 30.2121 13.9671L27.0262 16.9713L31.0679 20.7818C32.0074 20.4829 33.0842 20.6834 33.8328 21.3892C34.5853 22.0994 34.7964 23.1233 34.4715 24.012L38.3667 27.6847C39.3091 27.3784 40.3968 27.5763 41.149 28.2871C42.2013 29.2784 42.2013 30.8855 41.149 31.8774C40.8989 32.1133 40.602 32.3004 40.2752 32.4281C39.9484 32.5557 39.5981 32.6214 39.2444 32.6214C38.8906 32.6214 38.5403 32.5557 38.2135 32.4281C37.8867 32.3004 37.5898 32.1133 37.3397 31.8774C36.9641 31.5229 36.7081 31.0716 36.6038 30.5802C36.4995 30.0889 36.5517 29.5794 36.7537 29.116L33.1213 25.6913L33.1207 34.7047C33.3843 34.827 33.6249 34.9891 33.8331 35.1845C34.8849 36.1758 34.8849 37.7824 33.8331 38.7758C32.7811 39.7672 31.0759 39.7672 30.025 38.7758C28.9732 37.7827 28.9732 36.1761 30.025 35.1845C30.2772 34.9468 30.5769 34.7586 30.9067 34.6307V25.5338C30.5765 25.4064 30.2767 25.218 30.025 24.9797C29.2282 24.2291 29.0364 23.1267 29.4451 22.2039L25.4605 18.4472L14.9395 28.3658C14.5151 28.7661 14.2766 29.309 14.2766 29.875C14.2766 30.4411 14.5151 30.9839 14.9395 31.3842L30.2836 45.8499C31.1672 46.683 32.5998 46.683 33.4849 45.8499L48.7569 31.4514C49.1812 31.051 49.4196 30.5081 49.4195 29.942C49.4195 29.376 49.181 28.8331 48.7566 28.4328Z" fill="white"/>
</g>
<defs>
<clipPath id="clip0_10435_736">
<rect width="35.6341" height="33.5959" fill="white" transform="translate(14.0308 13.1104)"/>
</clipPath>
</defs>
</svg>
