<svg width="65" height="61" viewBox="0 0 65 61" fill="none" xmlns="http://www.w3.org/2000/svg">
<rect width="64.1407" height="60.472" rx="30" fill="url(#paint0_linear_10435_722)"/>
<path d="M43.4229 17.549H20.0083C19.1175 17.549 18.4345 18.2769 18.5384 19.1028L21.211 41.808C21.2704 42.3679 21.701 42.8439 22.28 42.9979L31.3073 45.4336C31.5745 45.5036 31.8567 45.5036 32.124 45.4336L41.1512 42.9979C41.7303 42.8439 42.146 42.3679 42.2203 41.808L44.8928 19.1028C44.9968 18.2769 44.3138 17.549 43.4229 17.549ZM38.0333 25.248H26.6601L27.15 29.4475H37.2909C37.6027 29.4475 37.8996 29.5735 38.1223 29.7975C38.3302 30.0214 38.4341 30.3154 38.4045 30.6094L37.6621 37.6085C37.6175 38.0425 37.3058 38.3924 36.8603 38.5184L31.6637 39.9182C31.5598 39.9462 31.4558 39.9602 31.3519 39.9602C31.2479 39.9602 31.144 39.9462 31.04 39.9182L25.8434 38.5184C25.3683 38.3924 25.0417 37.9725 25.0417 37.5105V34.7109C25.0417 34.1369 25.5465 33.661 26.1552 33.661C26.764 33.661 27.2688 34.1369 27.2688 34.7109V36.7126L31.3519 37.8185L35.5092 36.6986L36.0585 31.5612H26.1552C25.591 31.5612 25.1159 31.1553 25.0417 30.6234L24.2993 24.3241C24.2696 24.0302 24.3587 23.7362 24.5814 23.5122C24.7893 23.2882 25.101 23.1623 25.4128 23.1623H38.0333C38.642 23.1623 39.1468 23.6382 39.1468 24.2121C39.1468 24.7861 38.642 25.248 38.0333 25.248Z" fill="white"/>
<defs>
<linearGradient id="paint0_linear_10435_722" x1="36.5032" y1="62.2754" x2="9.33464" y2="-1.20529" gradientUnits="userSpaceOnUse">
<stop stop-color="#DC6110"/>
<stop offset="1" stop-color="#FF802C"/>
</linearGradient>
</defs>
</svg>
