<svg width="65" height="61" viewBox="0 0 65 61" fill="none" xmlns="http://www.w3.org/2000/svg">
<rect width="64.1407" height="60.472" rx="30" fill="url(#paint0_linear_10435_725)"/>
<path d="M35.3881 34.2478C36.2761 35.6301 37.4313 36.6461 39.4746 36.6461C41.191 36.6461 42.2875 35.8282 42.2875 34.6981C42.2875 33.3439 41.1609 32.8642 39.2716 32.0764L38.236 31.6528C35.2468 30.4386 33.2609 28.9176 33.2609 25.7021C33.2609 22.7401 35.6281 20.4852 39.3276 20.4852C41.9614 20.4852 43.8549 21.3592 45.2194 23.6474L41.9936 25.622C41.2834 24.4079 40.5172 23.9295 39.3276 23.9295C38.1143 23.9295 37.3453 24.6634 37.3453 25.622C37.3453 26.8068 38.115 27.2865 39.8923 28.0203L40.9279 28.4433C44.4476 29.8822 46.4348 31.3492 46.4348 34.6474C46.4348 38.2032 43.505 40.1511 39.5704 40.1511C35.7233 40.1511 33.2378 38.4033 32.0217 36.1124L35.3881 34.2478ZM20.7546 34.5901C21.4053 35.6908 21.9973 36.6214 23.4206 36.6214C24.7816 36.6214 25.6401 36.1138 25.6401 34.1398V20.7107H29.7826V34.1931C29.7826 38.2825 27.2677 40.1438 23.5969 40.1438C20.2802 40.1438 18.3594 38.5074 17.3826 36.5364L20.7546 34.5901Z" fill="white"/>
<defs>
<linearGradient id="paint0_linear_10435_725" x1="36.5032" y1="62.2754" x2="9.33464" y2="-1.20529" gradientUnits="userSpaceOnUse">
<stop stop-color="#DAAD0C"/>
<stop offset="1" stop-color="#FFED00"/>
</linearGradient>
</defs>
</svg>
