<svg width="28" height="28" viewBox="0 0 28 28" fill="none" xmlns="http://www.w3.org/2000/svg">
<path opacity="0.4" d="M19.8334 21.5016H15.1667L9.97503 24.955C9.20503 25.4683 8.16671 24.92 8.16671 23.9866V21.5016C4.66671 21.5016 2.33337 19.1683 2.33337 15.6683V8.66829C2.33337 5.16829 4.66671 2.83496 8.16671 2.83496H19.8334C23.3334 2.83496 25.6667 5.16829 25.6667 8.66829V15.6683C25.6667 19.1683 23.3334 21.5016 19.8334 21.5016Z" fill="#7C3AED"/>
<path d="M14 14.1284C13.5217 14.1284 13.125 13.7318 13.125 13.2534V13.0085C13.125 11.6551 14.1166 10.9901 14.49 10.7334C14.9216 10.4418 15.0616 10.2435 15.0616 9.94012C15.0616 9.35679 14.5833 8.87842 14 8.87842C13.4167 8.87842 12.9384 9.35679 12.9384 9.94012C12.9384 10.4185 12.5417 10.8151 12.0634 10.8151C11.585 10.8151 11.1884 10.4185 11.1884 9.94012C11.1884 8.38846 12.4483 7.12842 14 7.12842C15.5517 7.12842 16.8116 8.38846 16.8116 9.94012C16.8116 11.2701 15.8317 11.9351 15.47 12.1801C15.015 12.4834 14.875 12.6818 14.875 13.0085V13.2534C14.875 13.7434 14.4783 14.1284 14 14.1284Z" fill="#7C3AED"/>
<path d="M14 17.0332C13.51 17.0332 13.125 16.6365 13.125 16.1582C13.125 15.6799 13.5217 15.2832 14 15.2832C14.4783 15.2832 14.875 15.6799 14.875 16.1582C14.875 16.6365 14.49 17.0332 14 17.0332Z" fill="#7C3AED"/>
</svg>
