<svg width="65" height="61" viewBox="0 0 65 61" fill="none" xmlns="http://www.w3.org/2000/svg">
<rect width="64.1407" height="60.472" rx="30" fill="url(#paint0_linear_10435_741)"/>
<path d="M31.0664 15.2489L30.5616 15.2914C25.8307 15.6934 21.3979 18.1011 18.5894 21.7997C17.0376 23.8309 16.029 26.1854 15.6492 28.6629C15.5159 29.5236 15.4993 29.778 15.4993 30.9481C15.4993 32.1181 15.5159 32.3726 15.6492 33.2364C16.5537 39.1337 21.0065 44.0888 27.0434 45.9247C28.1262 46.253 29.2656 46.476 30.5616 46.6126C31.0664 46.6645 33.2486 46.6645 33.7534 46.6126C35.9906 46.3771 37.8846 45.8572 39.7553 44.9573C40.0418 44.8191 40.0968 44.7814 40.0585 44.7516C40.0318 44.7327 38.8108 43.1889 37.3449 41.3215L34.6812 37.9291L31.3429 33.2725C30.2332 31.7147 29.1132 30.1635 27.9829 28.619C27.9696 28.6158 27.9563 30.6842 27.9496 33.2112C27.9396 37.6354 27.9363 37.8129 27.878 37.9181C27.8205 38.0403 27.719 38.1394 27.5915 38.1977C27.4865 38.2448 27.3966 38.2558 26.9052 38.2558H26.3404L26.1905 38.1663C26.0999 38.1092 26.0256 38.0321 25.974 37.9417L25.904 37.8035L25.9107 31.6485L25.9207 25.4904L26.0206 25.3711C26.0877 25.2944 26.1697 25.2305 26.2621 25.1826C26.3954 25.1214 26.4487 25.1151 27.0118 25.1151C27.6764 25.1151 27.7864 25.1402 27.9596 25.3193C28.0096 25.3664 29.8153 27.9342 31.9776 31.025L38.5509 40.4106L41.1879 44.1767L41.3212 44.0951C42.5039 43.3695 43.7533 42.3392 44.7445 41.2634C46.8435 38.9992 48.2051 36.212 48.6658 33.2364C48.7991 32.3726 48.8157 32.1181 48.8157 30.9481C48.8157 29.7796 48.7991 29.5236 48.6658 28.6614C47.7613 22.764 43.3085 17.8089 37.2716 15.973C36.1425 15.6345 34.9799 15.4051 33.8017 15.2882C33.4902 15.2568 31.3362 15.2254 31.0664 15.2489ZM37.8863 24.7476C38.0428 24.8214 38.1694 24.9627 38.2144 25.1088C38.2411 25.1889 38.2477 26.8961 38.2411 30.7423L38.2311 36.2628L37.1983 34.7708L36.1638 33.2788V29.266C36.1638 26.6715 36.1771 25.214 36.1971 25.1434C36.2204 25.0619 36.2609 24.9857 36.3162 24.9193C36.3714 24.853 36.4403 24.7977 36.5186 24.757C36.6519 24.6926 36.7019 24.6863 37.2116 24.6863C37.6947 24.6863 37.778 24.6926 37.8863 24.7476Z" fill="white"/>
<defs>
<linearGradient id="paint0_linear_10435_741" x1="36.5032" y1="62.2754" x2="9.33464" y2="-1.20529" gradientUnits="userSpaceOnUse">
<stop offset="0.0729167" stop-color="#1B1F23"/>
<stop offset="0.973958" stop-color="#363C42"/>
</linearGradient>
</defs>
</svg>
