<svg width="49" height="53" viewBox="0 0 49 53" fill="none" xmlns="http://www.w3.org/2000/svg">
<path d="M9.6842 37.9634V14.3999C9.6842 11.1272 10.989 9.81812 14.2307 9.81812H16.351C19.5926 9.81812 20.8974 11.1272 20.8974 14.3999V37.9634C20.8974 41.2361 19.5926 42.5452 16.351 42.5452H14.2307C10.989 42.5452 9.6842 41.2361 9.6842 37.9634Z" fill="white"/>
<path d="M9.68413 27.818H5.60659C4.7707 27.818 4.07751 27.0762 4.07751 26.1816C4.07751 25.2871 4.7707 24.5453 5.60659 24.5453H9.68413V27.818Z" fill="white"/>
<path d="M27.0136 24.5453H20.8973V27.818H27.0136V24.5453Z" fill="white"/>
<path d="M43.3239 27.818H38.2269V24.5453H43.3239C44.1597 24.5453 44.8529 25.2871 44.8529 26.1816C44.8529 27.0762 44.1597 27.818 43.3239 27.818Z" fill="white"/>
<path opacity="0.4" d="M27.0137 33.5998V18.7636C27.0137 15.4908 28.3185 14.1818 31.5601 14.1818H33.6804C36.9221 14.1818 38.2269 15.4908 38.2269 18.7636V33.5998C38.2269 36.8726 36.9221 38.1816 33.6804 38.1816H31.5601C28.3185 38.1816 27.0137 36.8726 27.0137 33.5998Z" fill="white"/>
</svg>
