<svg width="65" height="61" viewBox="0 0 65 61" fill="none" xmlns="http://www.w3.org/2000/svg">
<rect width="64.1407" height="60.472" rx="30" fill="url(#paint0_linear_10435_728)"/>
<path d="M24.6255 30.3181C24.6255 20.5126 27.9962 12.5642 32.1579 12.5642C36.3196 12.5642 39.6903 20.5126 39.6903 30.3181C39.6903 40.1237 36.3196 48.0721 32.1579 48.0721C27.9962 48.0721 24.6255 40.1237 24.6255 30.3181Z" stroke="white" stroke-width="2.5" stroke-linecap="round" stroke-linejoin="round"/>
<path d="M28.3446 24.3174C37.4625 19.4137 46.5617 18.1923 48.667 21.5886C50.7723 24.9849 45.0891 31.7136 35.9711 36.6155C26.8531 41.5174 17.754 42.7406 15.6487 39.3425C13.5434 35.9462 19.2266 29.221 28.3446 24.3174Z" stroke="white" stroke-width="2.5" stroke-linecap="round" stroke-linejoin="round"/>
<path d="M35.9711 24.3174C45.0891 29.2174 50.7723 35.9462 48.667 39.3425C46.5617 42.7406 37.4625 41.5192 28.3446 36.6155C19.2266 31.7119 13.5434 24.9867 15.6487 21.5886C17.7521 18.1923 26.8531 19.4137 35.9711 24.3174Z" stroke="white" stroke-width="2.5" stroke-linecap="round" stroke-linejoin="round"/>
<path d="M34.9826 30.3181C34.9826 31.0244 34.685 31.7018 34.1552 32.2012C33.6255 32.7006 32.9071 32.9812 32.1579 32.9812C31.4088 32.9812 30.6903 32.7006 30.1606 32.2012C29.6308 31.7018 29.3333 31.0244 29.3333 30.3181C29.3333 29.6118 29.6308 28.9345 30.1606 28.435C30.6903 27.9356 31.4088 27.655 32.1579 27.655C32.9071 27.655 33.6255 27.9356 34.1552 28.435C34.685 28.9345 34.9826 29.6118 34.9826 30.3181Z" stroke="white" stroke-width="2.5" stroke-linecap="round" stroke-linejoin="round"/>
<defs>
<linearGradient id="paint0_linear_10435_728" x1="36.5032" y1="62.2754" x2="9.33464" y2="-1.20529" gradientUnits="userSpaceOnUse">
<stop offset="0.0729167" stop-color="#1376C6"/>
<stop offset="0.973958" stop-color="#2196F3"/>
</linearGradient>
</defs>
</svg>
